:version 1.10
:name ASF
:units
  mass 1
  length 1
  angle deg
:documentation
  ASF file generated by Kaydara
:root
  axis xyz
  order  tx ty tz rx ry rz
  position 0 0 0
  orientation 0 0 0
:bonedata
  begin
    id 1
    name RightUpLegDummy
    direction -1 2.30186e-007 8.31532e-007
    length 4.46685
    axis 0 0 0 xyz
  end
  begin
    id 2
    name RightUpLeg
    direction -2.30187e-007 -1 1.24343e-010
    length 16.4045
    axis -3.49089 -0.000906625 0.000286804 xyz
    dof rx ry rz
  end
  begin
    id 3
    name RightLeg
    direction -2.30181e-007 -1 -4.17157e-009
    length 17.5097
    axis 3.68512 0.0193738 -0.131023 xyz
    dof rx ry rz
  end
  begin
    id 4
    name RightFoot
    direction 8.31421e-007 -4.51202e-011 1
    length 6.49508
    axis 4.81691e-005 -0.120479 -0.188788 xyz
    dof rx ry rz
  end
  begin
    id 5
    name RightToes
    direction 0.00124746 -0.014064 0.9999
    length 3.85082
    axis 0.000481921 0.542163 -0.142578 xyz
    dof rx ry rz
  end
  begin
    id 6
    name SpineDummy
    direction 0.0717043 0.9409 -0.331007
    length 10.0032
    axis 0 0 0 xyz
  end
  begin
    id 7
    name Spine
    direction 2.30186e-007 1 4.58806e-011
    length 9.84055
    axis -0.001389 0.000121418 2.40972e-006 xyz
    dof rx ry rz
  end
  begin
    id 8
    name Spine1
    direction 0 0 0
    length 0
    axis -0.001389 0.000121451 1.30017e-006 xyz
    dof rx ry rz
  end
  begin
    id 9
    name HEadDummy
    direction -0.00347485 0.950688 -0.310128
    length 8.00997
    axis -0.001389 0.000121451 1.30017e-006 xyz
  end
  begin
    id 10
    name HEad
    direction -0.0222688 0.980941 0.193023
    length 5.12695
    axis -0.001389 0.000121451 1.30017e-006 xyz
    dof rx ry rz
  end
  begin
    id 11
    name LeftShoulder1Dummy
    direction 0.988871 0.146793 -0.0242004
    length 3.5792
    axis -0.001389 0.000121451 1.30017e-006 xyz
  end
  begin
    id 12
    name LeftShoulder1
    direction 0.993832 0.108932 0.020779
    length 4.16823
    axis -0.001389 0.000121451 1.30017e-006 xyz
    dof rx ry rz
  end
  begin
    id 13
    name LeftArm
    direction 1 3.44807e-006 -8.31404e-007
    length 9.91437
    axis -23.1894 0.134784 0.967509 xyz
    dof rx ry rz
  end
  begin
    id 14
    name LeftForeArm
    direction 1 3.44842e-006 -8.31581e-007
    length 9.08575
    axis -9.91835 -0.06569 -0.177793 xyz
    dof rx ry rz
  end
  begin
    id 15
    name LeftHand
    direction 0.992938 -0.0411636 0.11126
    length 5.32135
    axis -0.00960232 -0.00340091 0.185173 xyz
    dof rx ry rz
  end
  begin
    id 16
    name RightShoulderDummy
    direction -0.988871 0.146793 -0.0241962
    length 3.5792
    axis -0.001389 0.000121451 1.30017e-006 xyz
  end
  begin
    id 17
    name RightShoulder
    direction -0.993832 0.108933 0.0207785
    length 4.16823
    axis 0.215806 0.000203643 -0.0068026 xyz
    dof rx ry rz
  end
  begin
    id 18
    name RightArm
    direction -1 3.90912e-006 8.31284e-007
    length 9.91437
    axis -23.2009 -0.134239 -0.964101 xyz
    dof rx ry rz
  end
  begin
    id 19
    name RightForeArm
    direction -1 3.90882e-006 8.31502e-007
    length 9.08575
    axis -9.92322 0.0658061 0.178867 xyz
    dof rx ry rz
  end
  begin
    id 20
    name RightHand
    direction -0.992843 -0.0414603 0.112003
    length 5.28593
    axis -0.00960638 0.00330671 -0.185228 xyz
    dof rx ry rz
  end
  begin
    id 21
    name LeftUpLegDummy
    direction 1 -2.30186e-007 -8.31532e-007
    length 4.46685
    axis 0 0 0 xyz
  end
  begin
    id 22
    name LeftUpLeg
    direction -2.30187e-007 -1 6.00931e-010
    length 16.4045
    axis -3.48766 0.00143442 -0.000524262 xyz
    dof rx ry rz
  end
  begin
    id 23
    name LeftLeg
    direction -2.30187e-007 -1 1.6669e-009
    length 17.5097
    axis 3.68178 -0.00654042 -0.000285133 xyz
    dof rx ry rz
  end
  begin
    id 24
    name LeftFoot
    direction 8.31532e-007 -4.54478e-011 1
    length 6.49508
    axis 1.87233e-006 4.66016e-005 -8.6538e-006 xyz
    dof rx ry rz
  end
  begin
    id 25
    name LeftToes
    direction 0.00818058 -0.00485161 0.999955
    length 3.85048
    axis 1.06247e-005 4.65869e-005 -8.65513e-006 xyz
    dof rx ry rz
  end
:hierarchy
  begin
    root RightUpLegDummy SpineDummy LeftUpLegDummy
    RightUpLegDummy RightUpLeg
    RightUpLeg RightLeg
    RightLeg RightFoot
    RightFoot RightToes
    SpineDummy Spine
    Spine Spine1
    Spine1 HEadDummy LeftShoulder1Dummy RightShoulderDummy
    HEadDummy HEad
    LeftShoulder1Dummy LeftShoulder1
    LeftShoulder1 LeftArm
    LeftArm LeftForeArm
    LeftForeArm LeftHand
    RightShoulderDummy RightShoulder
    RightShoulder RightArm
    RightArm RightForeArm
    RightForeArm RightHand
    LeftUpLegDummy LeftUpLeg
    LeftUpLeg LeftLeg
    LeftLeg LeftFoot
    LeftFoot LeftToes
  end

:SAMPLES-PER-SECOND 30
:FULLY-SPECIFIED
:DEGREES
141
root  -58.0398 28.0353 15.2601 23.3017 50.2646 1.3996
RightUpLeg  -33.0932 10.2231 -22.2486
RightLeg  77.4143 2.16279 7.0764
RightFoot  -0.766399 -0.00248002 0.0067507
RightToes  -47.5803 -0.28169 -0.353818
Spine  10.5835 -4.62361 4.38294
Spine1  18.7411 -10.5115 9.69518
HEad  2.44647 18.7627 -17.2188
LeftShoulder1  0 -2.42657e-020 -4.95415e-022
LeftArm  -14.7237 -5.3297 -86.8913
LeftForeArm  32.3005 -43.4388 -9.6168
LeftHand  0.200478 -7.65275 -3.36979
RightShoulder  0 2.42657e-020 1.07489e-018
RightArm  -56.237 -12.5316 69.2786
RightForeArm  -2.65581 62.561 19.8745
RightHand  2.15087 18.4189 13.5834
LeftUpLeg  -45.821 -0.978204 -11.741
LeftLeg  67.2403 6.10785 12.0629
LeftFoot  -36.054 -2.6652 -8.17709
LeftToes  2.2631 2.34596e-006 -6.06653e-008
142
root  -55.8846 28.6382 15.5747 22.597 50.3219 1.62997
RightUpLeg  -42.3631 7.29771 -17.4809
RightLeg  86.1726 0.0252234 -0.59635
RightFoot  -6.46545 -0.016363 0.0878534
RightToes  -37.9732 -0.202498 -0.303389
Spine  10.6252 -5.55789 4.16717
Spine1  18.7637 -12.4833 9.02502
HEad  2.17211 20.6028 -18.5325
LeftShoulder1  0 -2.42657e-020 -4.95415e-022
LeftArm  -18.2349 -4.97306 -86.3136
LeftForeArm  29.5622 -42.2695 -9.22724
LeftHand  0.335276 -8.6643 -4.7974
RightShoulder  0 2.42657e-020 1.07489e-018
RightArm  -53.9788 -17.4748 74.4765
RightForeArm  25.8158 75.9009 44.9325
RightHand  1.55437 19.096 9.59481
LeftUpLeg  -37.7717 2.09876 -13.6254
LeftLeg  59.7279 5.54363 8.15422
LeftFoot  -36.1025 -1.91082 -5.8585
LeftToes  1.17242 2.34596e-006 -6.06653e-008
143
root  -53.7058 29.1952 15.9026 20.3255 48.1735 -0.404495
RightUpLeg  -53.2696 6.80992 -10.3616
RightLeg  88.0112 -0.656964 -7.64669
RightFoot  -11.6795 0.109877 1.45191
RightToes  -24.9867 -0.110966 -0.215658
Spine  10.9322 -5.52201 4.07147
Spine1  19.5652 -12.3671 7.96846
HEad  2.21939 23.487 -19.9132
LeftShoulder1  0 -2.42657e-020 -4.95415e-022
LeftArm  -22.8361 -4.75881 -86.3207
LeftForeArm  29.8876 -41.8841 -9.1015
LeftHand  0.323307 -8.18421 -4.89085
RightShoulder  0 2.42657e-020 1.07489e-018
RightArm  -49.7628 -19.9558 79.4257
RightForeArm  107.311 78.9336 114.126
RightHand  0.190003 22.8306 1.31136
LeftUpLeg  -30.6286 8.5287 -14.3605
LeftLeg  52.8027 3.49057 4.01533
LeftFoot  -34.3211 -0.921077 -2.98219
LeftToes  -1.87055 2.34596e-006 -6.06653e-008
144
root  -51.4458 29.5699 16.3277 17.5472 45.6825 -2.42149
RightUpLeg  -61.0063 9.48991 -2.55728
RightLeg  81.0289 -1.28921 -6.13269
RightFoot  -10.1781 0.0398277 0.824828
RightToes  -26.725 -0.122032 -0.228572
Spine  11.5332 -5.3203 4.03517
Spine1  21.0667 -11.7515 6.46095
HEad  3.00871 27.0356 -21.1992
LeftShoulder1  0 -2.42657e-020 -4.95415e-022
LeftArm  -27.8306 -4.56088 -86.8067
LeftForeArm  29.817 -42.5157 -9.3082
LeftHand  0.296163 -7.13356 -5.12355
RightShoulder  0 2.42657e-020 1.07489e-018
RightArm  -40.4095 -19.5962 81.2562
RightForeArm  160.154 70.445 149.644
RightHand  -2.42024 25.5719 -10.2682
LeftUpLeg  -24.4659 14.9554 -13.9373
LeftLeg  49.4043 0.139626 0.135891
LeftFoot  -29.4582 -0.0269897 -0.102675
LeftToes  -5.9945 2.34596e-006 -6.06653e-008
145
root  -49.2001 29.6856 16.8988 14.5087 44.3364 -4.45593
RightUpLeg  -63.1152 13.0894 5.33279
RightLeg  65.1656 -2.84546 -5.33958
RightFoot  -5.3943 -0.0115626 0.132123
RightToes  -30.3143 -0.146091 -0.254145
Spine  12.0837 -5.31795 4.26872
Spine1  22.3829 -11.595 5.56704
HEad  4.52364 30.3723 -21.7696
LeftShoulder1  0 -2.42657e-020 -4.95415e-022
LeftArm  -31.9817 -4.12088 -88.1456
LeftForeArm  27.4459 -43.8414 -9.75733
LeftHand  0.265828 -6.51277 -5.04491
RightShoulder  0 2.42657e-020 1.07489e-018
RightArm  -26.4986 -15.8884 79.3563
RightForeArm  -169.79 63.5226 158.828
RightHand  -4.17416 26.3418 -17.337
LeftUpLeg  -19.281 17.4616 -11.2671
LeftLeg  50.2756 -4.9847 -5.25611
LeftFoot  -23.1537 0.581849 2.83981
LeftToes  -18.5332 2.34596e-006 -6.06653e-008
146
root  -46.8042 29.4108 17.3094 13.2056 45.2449 -4.50732
RightUpLeg  -62.238 15.1481 9.11879
RightLeg  46.0715 -3.77643 -3.47452
RightFoot  0.788819 0.00649188 -0.564991
RightToes  -34.8415 -0.178641 -0.284168
Spine  11.9499 -6.15793 4.32909
Spine1  22.2333 -13.2218 4.81802
HEad  7.60986 32.8557 -20.6462
LeftShoulder1  0 -2.42657e-020 -4.95415e-022
LeftArm  -35.052 -2.70421 -89.5311
LeftForeArm  25.6308 -45.7238 -10.4309
LeftHand  0.168393 -4.67326 -4.50169
RightShoulder  0 2.42657e-020 1.07489e-018
RightArm  -9.21028 -8.73745 76.1077
RightForeArm  -161.54 63.0682 159.284
RightHand  -5.26192 24.9712 -23.0827
LeftUpLeg  -15.965 13.265 -9.81726
LeftLeg  54.0379 -9.4365 -11.2012
LeftFoot  -16.1498 0.596399 4.20186
LeftToes  -38.0317 2.34596e-006 -6.06653e-008
147
root  -44.2404 28.718 17.681 13.2949 47.3744 -2.034
RightUpLeg  -61.2681 16.528 8.10014
RightLeg  34.5685 -4.81477 -2.88715
RightFoot  3.25964 0.0334308 -0.797169
RightToes  -38.3692 -0.205588 -0.305726
Spine  11.8968 -6.90255 4.00822
Spine1  21.9611 -14.9347 4.26436
HEad  10.9934 31.8138 -18.6903
LeftShoulder1  0 -2.42657e-020 -4.95415e-022
LeftArm  -36.2407 -3.21278 -90.6027
LeftForeArm  24.1972 -44.6748 -10.0501
LeftHand  0.0827637 -3.84371 -2.84119
RightShoulder  0 2.42657e-020 1.07489e-018
RightArm  4.00596 -0.162586 76.4956
RightForeArm  -160.144 66.0453 156.203
RightHand  -4.56225 22.9287 -21.8606
LeftUpLeg  -13.166 10.7345 -10.0113
LeftLeg  59.9995 -14.1589 -20.164
LeftFoot  -9.05337 0.332223 4.19443
LeftToes  -50.6158 2.34596e-006 -6.06653e-008
